<svg width="22" height="16" viewBox="0 0 22 16" fill="none" xmlns="http://www.w3.org/2000/svg">
<path d="M7.97264 14.0521C7.7166 14.2918 7.51845 14.4522 7.31595 14.5695C6.32469 15.1435 5.10342 15.1435 4.11217 14.5695C3.74688 14.358 3.39576 14.0058 2.6935 13.3016C1.99124 12.5972 1.64011 12.2451 1.42923 11.8787C0.856925 10.8845 0.856925 9.65962 1.42923 8.66546C1.64011 8.29915 1.99124 7.94698 2.6935 7.24265L5.71406 4.21321C6.41632 3.50889 6.76744 3.15672 7.13271 2.94522C8.12397 2.37123 9.34526 2.37123 10.3365 2.94521C10.7017 3.15672 11.0529 3.50889 11.7551 4.21321C12.4574 4.91754 12.8085 5.26969 13.0195 5.63604C13.5918 6.63021 13.5918 7.85508 13.0195 8.84925C12.9025 9.05233 12.7426 9.25112 12.5034 9.50785M9.49659 6.49215C9.25748 6.74888 9.0975 6.94767 8.98057 7.15075C8.40831 8.14492 8.40831 9.36979 8.98057 10.364C9.19148 10.7304 9.54262 11.0825 10.2449 11.7868C10.9472 12.4911 11.2983 12.8433 11.6635 13.0548C12.6548 13.6288 13.876 13.6288 14.8673 13.0548C15.2326 12.8433 15.5838 12.4911 16.286 11.7868L19.3066 8.75735C20.0088 8.05302 20.36 7.70085 20.5708 7.33455C21.1431 6.34038 21.1431 5.11549 20.5708 4.12133C20.36 3.75498 20.0088 3.40281 19.3066 2.69849C18.6043 1.99416 18.2532 1.642 17.8879 1.43049C16.8966 0.856503 15.6754 0.856503 14.6841 1.43049C14.4816 1.54775 14.2835 1.70823 14.0274 1.94798" stroke="#535EE1" stroke-width="2" stroke-linecap="round"/>
</svg>
