<svg width="19" height="19" viewBox="0 0 19 19" fill="none" xmlns="http://www.w3.org/2000/svg">
<path d="M7.12504 1.58337H3.16671C2.29226 1.58337 1.58337 2.29226 1.58337 3.16671V8.70837C1.58337 9.58282 2.29226 10.2917 3.16671 10.2917H7.12504C7.99949 10.2917 8.70837 9.58282 8.70837 8.70837V3.16671C8.70837 2.29226 7.99949 1.58337 7.12504 1.58337Z" fill="#535EE1"/>
<path d="M15.8333 1.58337H11.875C11.0005 1.58337 10.2916 2.29226 10.2916 3.16671V5.54171C10.2916 6.41616 11.0005 7.12504 11.875 7.12504H15.8333C16.7077 7.12504 17.4166 6.41616 17.4166 5.54171V3.16671C17.4166 2.29226 16.7077 1.58337 15.8333 1.58337Z" fill="#535EE1"/>
<path d="M7.12504 11.875H3.16671C2.29226 11.875 1.58337 12.5839 1.58337 13.4583V15.8333C1.58337 16.7078 2.29226 17.4167 3.16671 17.4167H7.12504C7.99949 17.4167 8.70837 16.7078 8.70837 15.8333V13.4583C8.70837 12.5839 7.99949 11.875 7.12504 11.875Z" fill="#535EE1"/>
<path d="M15.8333 8.70837H11.875C11.0005 8.70837 10.2916 9.41726 10.2916 10.2917V15.8334C10.2916 16.7078 11.0005 17.4167 11.875 17.4167H15.8333C16.7077 17.4167 17.4166 16.7078 17.4166 15.8334V10.2917C17.4166 9.41726 16.7077 8.70837 15.8333 8.70837Z" fill="#535EE1"/>
</svg>
