<svg width="22" height="22" viewBox="0 0 22 22" fill="none" xmlns="http://www.w3.org/2000/svg">
<path d="M13.2916 20.1588V16.9584C13.2916 16.1017 13.2916 15.6733 13.1073 15.3542C12.9867 15.1452 12.8131 14.9716 12.6041 14.851C12.285 14.6667 11.8566 14.6667 10.9999 14.6667C10.1432 14.6667 9.71484 14.6667 9.39575 14.851C9.18675 14.9716 9.01314 15.1452 8.89247 15.3542C8.70825 15.6733 8.70825 16.1017 8.70825 16.9584V20.1588H13.2916Z" fill="#535EE1"/>
<path opacity="0.5" fill-rule="evenodd" clip-rule="evenodd" d="M5.25429 11.0001C4.43774 11.0001 3.71538 10.6553 3.20825 10.1136V12.8334C3.20825 16.2903 3.20825 18.0188 4.28219 19.0928C5.14669 19.9573 6.43531 20.1258 8.70825 20.1588H13.2916C15.5646 20.1258 16.8531 19.9573 17.7176 19.0928C18.7916 18.0188 18.7916 16.2903 18.7916 12.8334V10.1146C18.2845 10.6558 17.5625 11.0001 16.7465 11.0001C15.3058 11.0001 14.0995 9.90841 13.9562 8.47486L13.8893 7.80762C14.0602 9.5169 12.7179 11.0001 11.0002 11.0001C9.294 11.0001 7.95833 9.53688 8.10783 7.84225L8.04457 8.47486C7.90122 9.90841 6.69495 11.0001 5.25429 11.0001ZM13.2916 16.9584V20.1588H8.70825V16.9584C8.70825 16.1017 8.70825 15.6733 8.89247 15.3542C9.01314 15.1452 9.18675 14.9716 9.39575 14.851C9.71484 14.6667 10.1432 14.6667 10.9999 14.6667C11.8566 14.6667 12.285 14.6667 12.6041 14.851C12.8131 14.9716 12.9867 15.1452 13.1073 15.3542C13.2916 15.6733 13.2916 16.1017 13.2916 16.9584Z" fill="#535EE1"/>
<path d="M8.70807 1.83325H13.2914L13.8888 7.80751C14.0598 9.51675 12.7175 10.9999 10.9997 10.9999C9.28199 10.9999 7.93972 9.51675 8.11064 7.80751L8.70807 1.83325Z" fill="#535EE1"/>
<path opacity="0.7" d="M3.05272 4.9053C3.21596 4.0891 3.29758 3.681 3.46353 3.35019C3.81321 2.65311 4.44242 2.13729 5.19454 1.93111C5.55148 1.83325 5.96766 1.83325 6.80002 1.83325H8.7088L8.04465 8.47475C7.9013 9.90826 6.69503 10.9999 5.25437 10.9999C3.48479 10.9999 2.15759 9.38099 2.50463 7.64577L3.05272 4.9053Z" fill="#535EE1"/>
<path opacity="0.7" d="M18.9479 4.9053C18.7846 4.0891 18.7029 3.681 18.537 3.35019C18.1873 2.65311 17.5581 2.13729 16.806 1.93111C16.449 1.83325 16.0329 1.83325 15.2005 1.83325H13.2917L13.9559 8.47475C14.0992 9.90826 15.3055 10.9999 16.7462 10.9999C18.5157 10.9999 19.843 9.38099 19.4959 7.64577L18.9479 4.9053Z" fill="#535EE1"/>
</svg>
