<svg width="27" height="20" viewBox="0 0 27 20" fill="none" xmlns="http://www.w3.org/2000/svg">
<path d="M9.7158 17.7812C9.39575 18.0894 9.14806 18.2957 8.89493 18.4465C7.65586 19.1845 6.12927 19.1845 4.89021 18.4465C4.4336 18.1745 3.9947 17.7218 3.11688 16.8163C2.23906 15.9107 1.80014 15.458 1.53653 14.9869C0.821156 13.7086 0.821156 12.1338 1.53653 10.8556C1.80014 10.3846 2.23906 9.93183 3.11688 9.02626L6.89257 5.13127C7.77039 4.22572 8.2093 3.77293 8.66589 3.50099C9.90496 2.76301 11.4316 2.76301 12.6706 3.50098C13.1272 3.77293 13.5661 4.22572 14.4439 5.13127C15.3218 6.03683 15.7607 6.48961 16.0243 6.96063C16.7397 8.23884 16.7397 9.81368 16.0243 11.0919C15.8782 11.353 15.6782 11.6086 15.3793 11.9387M11.6207 8.06133C11.3218 8.39142 11.1219 8.64701 10.9757 8.90811C10.2604 10.1863 10.2604 11.7612 10.9757 13.0394C11.2394 13.5105 11.6783 13.9633 12.5561 14.8687C13.4339 15.7743 13.8729 16.2271 14.3294 16.499C15.5685 17.237 17.0951 17.237 18.3341 16.499C18.7908 16.2271 19.2297 15.7743 20.1075 14.8687L23.8832 10.9737C24.761 10.0682 25.2 9.61538 25.4635 9.14442C26.1788 7.8662 26.1788 6.29135 25.4635 5.01313C25.2 4.54211 24.761 4.08933 23.8832 3.18377C23.0054 2.27821 22.5664 1.82543 22.1099 1.55349C20.8707 0.815504 19.3442 0.815504 18.1052 1.55349C17.852 1.70425 17.6043 1.91058 17.2842 2.21883" stroke="#535EE1" stroke-width="2" stroke-linecap="round"/>
</svg>
