<svg width="13" height="13" viewBox="0 0 13 13" fill="none" xmlns="http://www.w3.org/2000/svg">
<path opacity="0.5" d="M11.9166 6.49992C11.9166 9.49144 9.49144 11.9166 6.49992 11.9166C3.50837 11.9166 1.08325 9.49144 1.08325 6.49992C1.08325 3.50837 3.50837 1.08325 6.49992 1.08325C9.49144 1.08325 11.9166 3.50837 11.9166 6.49992Z" fill="#0F4326"/>
<path d="M8.68316 4.85849C8.84181 5.01714 8.84181 5.27436 8.68316 5.433L5.97483 8.14133C5.81617 8.29998 5.55899 8.29998 5.40032 8.14133L4.31698 7.058C4.15834 6.89934 4.15834 6.64216 4.31698 6.4835C4.47563 6.32485 4.73286 6.32485 4.89151 6.4835L5.68758 7.27954L6.8981 6.06902L8.10867 4.85849C8.26732 4.69984 8.52451 4.69984 8.68316 4.85849Z" fill="#0F4326"/>
</svg>
