<svg width="26" height="26" viewBox="0 0 26 26" fill="none" xmlns="http://www.w3.org/2000/svg">
<path d="M9.27887 18.4062L8.19554 20.5729C6.81565 19.9979 5.38673 19.423 3.86762 18.4333C3.33787 18.0882 3.01667 17.5017 3.00394 16.8695C2.93785 13.6244 3.69917 10.362 5.62682 6.91262C5.8791 6.46115 6.29944 6.13019 6.78694 5.95713C7.9499 5.54438 8.73937 5.22533 10.0914 5L10.9039 6.48958C10.9039 6.48958 11.7164 6.21875 13.0705 6.21875C14.4247 6.21875 15.2372 6.48958 15.2372 6.48958L16.0497 5C17.4017 5.22533 18.1912 5.54438 19.3541 5.95713C19.8416 6.13019 20.262 6.46115 20.5143 6.91262C22.4419 10.362 23.2032 13.6244 23.1373 16.8695C23.1244 17.5017 22.8032 18.0882 22.2735 18.4333C20.7544 19.423 19.3256 19.9979 17.9455 20.5729L16.8622 18.4062M7.65387 17.3229C7.65387 17.3229 10.3622 18.6771 13.0705 18.6771C15.7789 18.6771 18.4872 17.3229 18.4872 17.3229" stroke="#6B7587" stroke-width="1.5" stroke-linecap="round" stroke-linejoin="round"/>
<path d="M9.61442 15.7085C10.5867 15.7085 11.3748 14.7991 11.3748 13.6772C11.3748 12.5554 10.5867 11.646 9.61442 11.646C8.64217 11.646 7.854 12.5554 7.854 13.6772C7.854 14.7991 8.64217 15.7085 9.61442 15.7085Z" fill="#6B7587"/>
<path d="M16.3854 15.7085C17.3577 15.7085 18.1458 14.7991 18.1458 13.6772C18.1458 12.5554 17.3577 11.646 16.3854 11.646C15.4132 11.646 14.625 12.5554 14.625 13.6772C14.625 14.7991 15.4132 15.7085 16.3854 15.7085Z" fill="#6B7587"/>
</svg>
