<svg width="22" height="22" viewBox="0 0 22 22" fill="none" xmlns="http://www.w3.org/2000/svg">
<path fill-rule="evenodd" clip-rule="evenodd" d="M4.7334 10.5416C4.7334 9.87213 4.84943 9.23026 5.05652 8.62822L1.43165 5.97546C0.72518 7.3501 0.327148 8.89902 0.327148 10.5416C0.327148 12.1829 0.72469 13.7309 1.43018 15.1045L5.0531 12.4466C4.84796 11.8474 4.7334 11.2079 4.7334 10.5416Z" fill="#FBBC05"/>
<path fill-rule="evenodd" clip-rule="evenodd" d="M11.098 4.45092C12.6157 4.45092 13.9865 4.96629 15.0636 5.80962L18.1969 2.8111C16.2876 1.21814 13.8396 0.234253 11.098 0.234253C6.84154 0.234253 3.18337 2.56701 1.43164 5.97548L5.05652 8.62823C5.89174 6.19849 8.27259 4.45092 11.098 4.45092Z" fill="#EB4335"/>
<path fill-rule="evenodd" clip-rule="evenodd" d="M11.098 16.6324C8.27259 16.6324 5.89174 14.8848 5.05652 12.4551L1.43164 15.1074C3.18337 18.5163 6.84154 20.8491 11.098 20.8491C13.7251 20.8491 16.2332 19.9551 18.1157 18.2802L14.6749 15.731C13.704 16.3171 12.4815 16.6324 11.098 16.6324Z" fill="#34A853"/>
<path fill-rule="evenodd" clip-rule="evenodd" d="M21.3793 10.5417C21.3793 9.9326 21.2814 9.27668 21.1345 8.6676H11.098V12.65H16.8751C16.5863 14.0078 15.8 15.0516 14.6749 15.731L18.1157 18.2802C20.0931 16.5214 21.3793 13.9014 21.3793 10.5417Z" fill="#4285F4"/>
</svg>
