<svg width="23" height="23" viewBox="0 0 23 23" fill="none" xmlns="http://www.w3.org/2000/svg">
<path fill-rule="evenodd" clip-rule="evenodd" d="M2.875 13.6562C3.27195 13.6562 3.59375 13.9781 3.59375 14.375C3.59375 15.7506 3.59527 16.71 3.6926 17.4339C3.78714 18.1371 3.96007 18.5094 4.2253 18.7747C4.49053 19.04 4.86292 19.2129 5.56612 19.3074C6.28999 19.4047 7.2494 19.4062 8.625 19.4062H14.375C15.7506 19.4062 16.71 19.4047 17.4339 19.3074C18.1371 19.2129 18.5094 19.04 18.7747 18.7747C19.04 18.5094 19.2129 18.1371 19.3074 17.4339C19.4047 16.71 19.4062 15.7506 19.4062 14.375C19.4062 13.9781 19.7281 13.6562 20.125 13.6562C20.5219 13.6562 20.8438 13.9781 20.8438 14.375V14.4276C20.8438 15.7382 20.8437 16.7946 20.7321 17.6255C20.6161 18.4881 20.368 19.2143 19.7912 19.7911C19.2143 20.368 18.4881 20.6161 17.6255 20.7321C16.7946 20.8437 15.7382 20.8438 14.4276 20.8438H8.57242C7.26181 20.8438 6.20542 20.8437 5.37457 20.7321C4.51197 20.6161 3.78568 20.368 3.20884 19.7912C2.632 19.2143 2.38389 18.4881 2.26792 17.6255C2.15621 16.7946 2.15623 15.7382 2.15625 14.4276C2.15625 14.4101 2.15625 14.3925 2.15625 14.375C2.15625 13.9781 2.47805 13.6562 2.875 13.6562Z" fill="#515A69"/>
<path fill-rule="evenodd" clip-rule="evenodd" d="M11.4998 2.15625C11.7017 2.15625 11.8941 2.24108 12.0303 2.39001L15.8636 6.58271C16.1315 6.87568 16.1111 7.33031 15.8182 7.59817C15.5252 7.86602 15.0706 7.84566 14.8027 7.5527L12.2186 4.72631V15.3333C12.2186 15.7303 11.8968 16.0521 11.4998 16.0521C11.1029 16.0521 10.7811 15.7303 10.7811 15.3333V4.72631L8.19697 7.5527C7.92912 7.84566 7.47448 7.86602 7.18152 7.59817C6.88856 7.33031 6.86819 6.87568 7.13605 6.58271L10.9694 2.39001C11.1056 2.24108 11.298 2.15625 11.4998 2.15625Z" fill="#515A69"/>
</svg>
