<svg width="28" height="29" viewBox="0 0 28 29" fill="none" xmlns="http://www.w3.org/2000/svg">
<path d="M17.1147 25.9483V21.9478C17.1147 20.8769 17.1147 20.3415 16.8844 19.9426C16.7336 19.6814 16.5165 19.4644 16.2553 19.3136C15.8564 19.0833 15.321 19.0833 14.2501 19.0833C13.1792 19.0833 12.6437 19.0833 12.2449 19.3136C11.9836 19.4644 11.7666 19.6814 11.6158 19.9426C11.3855 20.3415 11.3855 20.8769 11.3855 21.9478V25.9483H17.1147Z" fill="#535EE1"/>
<path opacity="0.5" fill-rule="evenodd" clip-rule="evenodd" d="M7.06804 14.5001C6.04736 14.5001 5.14441 14.0691 4.5105 13.3919V16.7917C4.5105 21.1129 4.5105 23.2735 5.85292 24.616C6.93355 25.6966 8.54432 25.9073 11.3855 25.9484H17.1147C19.9559 25.9073 21.5666 25.6966 22.6472 24.616C23.9897 23.2735 23.9897 21.1129 23.9897 16.7917V13.3932C23.3558 14.0697 22.4533 14.5001 21.4333 14.5001C19.6324 14.5001 18.1246 13.1355 17.9454 11.3436L17.8617 10.5095C18.0754 12.6461 16.3976 14.5001 14.2504 14.5001C12.1177 14.5001 10.4481 12.6711 10.635 10.5528L10.5559 11.3436C10.3767 13.1355 8.86887 14.5001 7.06804 14.5001ZM17.1147 21.948V25.9484H11.3855V21.948C11.3855 20.8771 11.3855 20.3417 11.6158 19.9428C11.7666 19.6815 11.9836 19.4645 12.2449 19.3137C12.6437 19.0834 13.1792 19.0834 14.2501 19.0834C15.321 19.0834 15.8564 19.0834 16.2553 19.3137C16.5165 19.4645 16.7336 19.6815 16.8844 19.9428C17.1147 20.3417 17.1147 20.8771 17.1147 21.948Z" fill="#535EE1"/>
<path d="M11.3853 3.04175H17.1144L17.8612 10.5096C18.0749 12.6461 16.397 14.5001 14.2499 14.5001C12.1027 14.5001 10.4248 12.6461 10.6385 10.5096L11.3853 3.04175Z" fill="#535EE1"/>
<path opacity="0.7" d="M4.3159 6.88181C4.51995 5.86156 4.62197 5.35144 4.82942 4.93792C5.26652 4.06657 6.05303 3.4218 6.99317 3.16407C7.43935 3.04175 7.95957 3.04175 9.00002 3.04175H11.386L10.5558 11.3436C10.3766 13.1355 8.86879 14.5001 7.06796 14.5001C4.85599 14.5001 3.19698 12.4764 3.63078 10.3074L4.3159 6.88181Z" fill="#535EE1"/>
<path opacity="0.7" d="M24.1846 6.88181C23.9806 5.86156 23.8785 5.35144 23.6711 4.93792C23.2339 4.06657 22.4474 3.4218 21.5073 3.16407C21.0611 3.04175 20.5409 3.04175 19.5005 3.04175H17.1145L17.9447 11.3436C18.1239 13.1355 19.6317 14.5001 21.4326 14.5001C23.6445 14.5001 25.3035 12.4764 24.8697 10.3074L24.1846 6.88181Z" fill="#535EE1"/>
</svg>
