<svg width="19" height="19" viewBox="0 0 19 19" fill="none" xmlns="http://www.w3.org/2000/svg">
<path fill-rule="evenodd" clip-rule="evenodd" d="M3.16663 3.71631V14.7996C3.16663 16.1113 4.22995 17.1746 5.54163 17.1746H13.4583C14.77 17.1746 15.8333 16.1113 15.8333 14.7996V6.88297C15.8333 5.57129 14.77 4.50798 13.4583 4.50798H3.95829C3.52107 4.50798 3.16663 4.15353 3.16663 3.71631ZM5.73954 9.25794C5.73954 8.93004 6.00538 8.66419 6.33329 8.66419H12.6666C12.9945 8.66419 13.2604 8.93004 13.2604 9.25794C13.2604 9.58585 12.9945 9.85169 12.6666 9.85169H6.33329C6.00538 9.85169 5.73954 9.58585 5.73954 9.25794ZM5.73954 12.0288C5.73954 11.7009 6.00538 11.435 6.33329 11.435H10.6875C11.0154 11.435 11.2812 11.7009 11.2812 12.0288C11.2812 12.3567 11.0154 12.6225 10.6875 12.6225H6.33329C6.00538 12.6225 5.73954 12.3567 5.73954 12.0288Z" fill="#575F74"/>
<path d="M14.25 3.16701V4.6432C14.0023 4.55568 13.7359 4.50806 13.4583 4.50806H3.95829C3.52107 4.50806 3.16663 4.15361 3.16663 3.71639V3.66014C3.16663 3.23817 3.4769 2.88042 3.89463 2.82074L12.4427 1.59959C13.3965 1.46332 14.25 2.20347 14.25 3.16701Z" fill="#A1B1CA"/>
</svg>
