<svg width="19" height="19" viewBox="0 0 19 19" fill="none" xmlns="http://www.w3.org/2000/svg">
<g clip-path="url(#clip0_68_95)">
<path d="M9.49996 18.2083C14.3094 18.2083 18.2083 14.3094 18.2083 9.49996C18.2083 4.69048 14.3094 0.791626 9.49996 0.791626C4.69048 0.791626 0.791626 4.69048 0.791626 9.49996C0.791626 10.893 1.11873 12.2097 1.70031 13.3773C1.85486 13.6876 1.9063 14.0423 1.8167 14.3772L1.29802 16.3157C1.07287 17.1572 1.84274 17.927 2.68425 17.7019L4.62275 17.1832C4.95764 17.0936 5.3123 17.1451 5.6226 17.2996C6.79024 17.8812 8.10694 18.2083 9.49996 18.2083Z" fill="#575F74"/>
<path d="M8.62915 9.50035C8.62915 9.98129 9.01905 10.3712 9.49998 10.3712C9.98092 10.3712 10.3708 9.98129 10.3708 9.50035C10.3708 9.01941 9.98092 8.62952 9.49998 8.62952C9.01905 8.62952 8.62915 9.01941 8.62915 9.50035Z" fill="#9EAFCA"/>
<path d="M5.14587 9.50035C5.14587 9.98129 5.53576 10.3712 6.01671 10.3712C6.49765 10.3712 6.88754 9.98129 6.88754 9.50035C6.88754 9.01941 6.49765 8.62952 6.01671 8.62952C5.53576 8.62952 5.14587 9.01941 5.14587 9.50035Z" fill="#9EAFCA"/>
<path d="M12.1125 9.50035C12.1125 9.98129 12.5024 10.3712 12.9834 10.3712C13.4643 10.3712 13.8542 9.98129 13.8542 9.50035C13.8542 9.01941 13.4643 8.62952 12.9834 8.62952C12.5024 8.62952 12.1125 9.01941 12.1125 9.50035Z" fill="#9EAFCA"/>
</g>
<defs>
<clipPath id="clip0_68_95">
<rect width="19" height="19" fill="white"/>
</clipPath>
</defs>
</svg>
