<svg width="22" height="22" viewBox="0 0 22 22" fill="none" xmlns="http://www.w3.org/2000/svg">
<path d="M13.2916 20.1587V16.9583C13.2916 16.1016 13.2916 15.6732 13.1073 15.3541C12.9867 15.1451 12.8131 14.9715 12.6041 14.8509C12.285 14.6666 11.8566 14.6666 10.9999 14.6666C10.1432 14.6666 9.71484 14.6666 9.39575 14.8509C9.18675 14.9715 9.01314 15.1451 8.89247 15.3541C8.70825 15.6732 8.70825 16.1016 8.70825 16.9583V20.1587H13.2916Z" fill="#575F74"/>
<path opacity="0.5" fill-rule="evenodd" clip-rule="evenodd" d="M5.25429 10.9999C4.43774 10.9999 3.71538 10.6552 3.20825 10.1134V12.8333C3.20825 16.2902 3.20825 18.0187 4.28219 19.0926C5.14669 19.9571 6.43531 20.1257 8.70825 20.1586H13.2916C15.5646 20.1257 16.8531 19.9571 17.7176 19.0926C18.7916 18.0187 18.7916 16.2902 18.7916 12.8333V10.1144C18.2845 10.6556 17.5625 10.9999 16.7465 10.9999C15.3058 10.9999 14.0995 9.90828 13.9562 8.47474L13.8893 7.8075C14.0602 9.51678 12.7179 10.9999 11.0002 10.9999C9.294 10.9999 7.95833 9.53676 8.10783 7.84213L8.04457 8.47474C7.90122 9.90828 6.69495 10.9999 5.25429 10.9999ZM13.2916 16.9583V20.1586H8.70825V16.9583C8.70825 16.1016 8.70825 15.6732 8.89247 15.3541C9.01314 15.1451 9.18675 14.9715 9.39575 14.8509C9.71484 14.6666 10.1432 14.6666 10.9999 14.6666C11.8566 14.6666 12.285 14.6666 12.6041 14.8509C12.8131 14.9715 12.9867 15.1451 13.1073 15.3541C13.2916 15.6732 13.2916 16.1016 13.2916 16.9583Z" fill="#575F74"/>
<path d="M8.70807 1.83337H13.2914L13.8888 7.80763C14.0598 9.51687 12.7175 11 10.9997 11C9.28199 11 7.93972 9.51687 8.11064 7.80763L8.70807 1.83337Z" fill="#575F74"/>
<path opacity="0.7" d="M3.05272 4.90543C3.21596 4.08923 3.29758 3.68113 3.46353 3.35031C3.81321 2.65323 4.44242 2.13741 5.19454 1.93123C5.55148 1.83337 5.96766 1.83337 6.80002 1.83337H8.7088L8.04465 8.47487C7.9013 9.90838 6.69503 11 5.25437 11C3.48479 11 2.15759 9.38112 2.50463 7.64589L3.05272 4.90543Z" fill="#575F74"/>
<path opacity="0.7" d="M18.9479 4.90543C18.7846 4.08923 18.7029 3.68113 18.537 3.35031C18.1873 2.65323 17.5581 2.13741 16.806 1.93123C16.449 1.83337 16.0329 1.83337 15.2005 1.83337H13.2917L13.9559 8.47487C14.0992 9.90838 15.3055 11 16.7462 11C18.5157 11 19.843 9.38112 19.4959 7.64589L18.9479 4.90543Z" fill="#575F74"/>
</svg>
