<svg width="19" height="19" viewBox="0 0 19 19" fill="none" xmlns="http://www.w3.org/2000/svg">
<path d="M7.12492 1.58325H3.16659C2.29213 1.58325 1.58325 2.29213 1.58325 3.16659V8.70825C1.58325 9.5827 2.29213 10.2916 3.16659 10.2916H7.12492C7.99937 10.2916 8.70825 9.5827 8.70825 8.70825V3.16659C8.70825 2.29213 7.99937 1.58325 7.12492 1.58325Z" fill="#575F74"/>
<path d="M15.8334 1.58325H11.8751C11.0006 1.58325 10.2917 2.29213 10.2917 3.16659V5.54158C10.2917 6.41604 11.0006 7.12492 11.8751 7.12492H15.8334C16.7079 7.12492 17.4167 6.41604 17.4167 5.54158V3.16659C17.4167 2.29213 16.7079 1.58325 15.8334 1.58325Z" fill="#575F74"/>
<path d="M7.12492 11.875H3.16659C2.29213 11.875 1.58325 12.5839 1.58325 13.4583V15.8333C1.58325 16.7078 2.29213 17.4167 3.16659 17.4167H7.12492C7.99937 17.4167 8.70825 16.7078 8.70825 15.8333V13.4583C8.70825 12.5839 7.99937 11.875 7.12492 11.875Z" fill="#575F74"/>
<path d="M15.8334 8.70825H11.8751C11.0006 8.70825 10.2917 9.41713 10.2917 10.2916V15.8333C10.2917 16.7077 11.0006 17.4166 11.8751 17.4166H15.8334C16.7079 17.4166 17.4167 16.7077 17.4167 15.8333V10.2916C17.4167 9.41713 16.7079 8.70825 15.8334 8.70825Z" fill="#575F74"/>
</svg>
