<svg width="17" height="17" viewBox="0 0 17 17" fill="none" xmlns="http://www.w3.org/2000/svg">
<path d="M2.10352 4.5744C2.10352 4.29778 2.3326 4.07354 2.6152 4.07354H5.97259C5.97715 3.48369 6.04108 2.67503 6.62645 2.11523C7.08716 1.67468 7.71872 1.40234 8.41423 1.40234C9.10974 1.40234 9.7413 1.67468 10.202 2.11523C10.7873 2.67503 10.8513 3.48369 10.8558 4.07354H14.2133C14.4959 4.07354 14.7249 4.29778 14.7249 4.5744C14.7249 4.85101 14.4959 5.07525 14.2133 5.07525H2.6152C2.3326 5.07525 2.10352 4.85101 2.10352 4.5744Z" fill="#FF6666"/>
<path opacity="0.5" d="M8.13075 15.4263H8.69788C10.6491 15.4263 11.6247 15.4263 12.259 14.8051C12.8934 14.1839 12.9582 13.1649 13.088 11.1269L13.275 8.19041C13.3455 7.08463 13.3807 6.53177 13.0624 6.18141C12.7442 5.83106 12.2068 5.83105 11.1321 5.83105H5.69654C4.62176 5.83105 4.08438 5.83106 3.76616 6.18141C3.44794 6.53177 3.48315 7.08463 3.55358 8.19041L3.74059 11.1269C3.87039 13.1649 3.93529 14.1839 4.56961 14.8051C5.20394 15.4263 6.17954 15.4263 8.13075 15.4263Z" fill="#FF6666"/>
<path fill-rule="evenodd" clip-rule="evenodd" d="M6.60898 8.05064C6.89798 8.02021 7.15568 8.24221 7.18457 8.54638L7.53516 12.2369C7.56405 12.5411 7.3532 12.8124 7.06424 12.8428C6.77523 12.8732 6.51752 12.6512 6.48862 12.347L6.13803 8.65654C6.10912 8.35236 6.31998 8.08107 6.60898 8.05064Z" fill="#FF6666"/>
<path fill-rule="evenodd" clip-rule="evenodd" d="M10.2196 8.05064C10.5086 8.08107 10.7194 8.35236 10.6905 8.65654L10.3399 12.347C10.3111 12.6512 10.0534 12.8732 9.76434 12.8428C9.47538 12.8124 9.26453 12.5411 9.29342 12.2369L9.64401 8.54638C9.6729 8.24221 9.93059 8.02021 10.2196 8.05064Z" fill="#FF6666"/>
</svg>
